# xmcd
#
# Track frame offsets: 
#        150
#        18046
#        36343
#        53020
#        66336
#        86063
#        106760
#        125263
#        140167
#        157849
#        175657
#        194603
#        217665
#        235228
#        254600
#        274363
#
# Disc length: 3888 seconds
#
# Revision: 0
# Processed by: cddbd v1.5.2PL0 Copyright (c) Steve Scherf et al.
# Submitted via: ExactAudioCopy v0.99pb4
#
DISCID=de0f2e10
DTITLE=Toto Cutugno - Greatest Hits
DYEAR=2006
DGENRE=Pop
TTITLE0=L'italiano
TTITLE1=Soli
TTITLE2=Voglio L'anima
TTITLE3=Donna Donna Mia
TTITLE4=Da Poco Tempo Che
TTITLE5=Sinfonia
TTITLE6=Solo Noi
TTITLE7=Flash
TTITLE8=Un'estate Con Te
TTITLE9=Innamorati
TTITLE10=La Mia Musica
TTITLE11=Mi Dici Che Stai Bene
TTITLE12=L'estate Vola Via
TTITLE13=Con Te
TTITLE14=Tu Sei Mia
TTITLE15=Serenata
EXTD=
EXTT0=
EXTT1=
EXTT2=
EXTT3=
EXTT4=
EXTT5=
EXTT6=
EXTT7=
EXTT8=
EXTT9=
EXTT10=
EXTT11=
EXTT12=
EXTT13=
EXTT14=
EXTT15=
PLAYORDER=
